<svg xmlns="http://www.w3.org/2000/svg" xmlns:xlink="http://www.w3.org/1999/xlink" version="1.1" x="0px" y="0px" viewBox="0 0 34 42.5" enable-background="new 0 0 34 34" xml:space="preserve"><g><path d="M24.16,19.16c-0.12-0.19-0.25-0.37-0.39-0.55c-0.2-0.28-0.44-0.55-0.76-0.87   c-0.29-0.29-0.59-0.55-0.91-0.78c-1.46-1.12-3.24-1.71-5.1-1.71c-1.88,0-3.66,0.61-5.11,1.71c-0.6,0.45-1.14,0.99-1.61,1.6   c-0.15,0.19-0.29,0.39-0.43,0.6c-0.87,1.35-1.35,2.96-1.35,4.59v0.5v3v0.5c0,0.83,0.67,1.5,1.5,1.5h14c0.83,0,1.5-0.67,1.5-1.5   v-0.5v-3.5C25.5,22.1,25.02,20.49,24.16,19.16z"/><path d="M21.5,9.25c0,2.48-2.02,4.5-4.5,4.5s-4.5-2.02-4.5-4.5c0-2.49,2.02-4.5,4.5-4.5S21.5,6.76,21.5,9.25z"/><path d="M31,9.25c0,2.48-2.02,4.5-4.5,4.5S22,11.73,22,9.25c0-2.49,2.02-4.5,4.5-4.5S31,6.76,31,9.25z"/><path d="M33,21.75v4c0,0.83-0.67,1.5-1.5,1.5H27v-3.5c0-1.91-0.56-3.83-1.57-5.39c-0.15-0.23-0.31-0.45-0.44-0.62   c-0.24-0.34-0.52-0.66-0.92-1.06c-0.23-0.23-0.46-0.44-0.69-0.63c0.94-0.52,2.01-0.8,3.12-0.8c1.73,0,3.36,0.67,4.59,1.89   C32.33,18.39,33,20.02,33,21.75z"/><path d="M10.63,16.05c-0.56,0.46-1.08,1-1.53,1.58c-0.17,0.22-0.34,0.45-0.51,0.72C7.55,19.96,7,21.83,7,23.75   v3.5H2.5c-0.83,0-1.5-0.67-1.5-1.5v-4c0-3.58,2.92-6.5,6.5-6.5C8.61,15.25,9.68,15.53,10.63,16.05z"/><path d="M12,9.25c0,2.48-2.02,4.5-4.5,4.5S3,11.73,3,9.25c0-2.49,2.02-4.5,4.5-4.5S12,6.76,12,9.25z"/></g><text x="0" y="49" fill="#000000" font-size="5px" font-weight="bold" font-family="'Helvetica Neue', Helvetica, Arial-Unicode, Arial, Sans-serif">Created by ProSymbols</text><text x="0" y="54" fill="#000000" font-size="5px" font-weight="bold" font-family="'Helvetica Neue', Helvetica, Arial-Unicode, Arial, Sans-serif">from the Noun Project</text></svg>