<svg xmlns="http://www.w3.org/2000/svg" xmlns:xlink="http://www.w3.org/1999/xlink" version="1.1" x="0px" y="0px" viewBox="0 0 128 160" style="enable-background:new 0 0 128 128;" xml:space="preserve"><g><g><g><path d="M26.528,62.031c-7.932,0-14.385-6.394-14.385-14.252s6.453-14.253,14.385-14.253s14.384,6.394,14.384,14.253     S34.46,62.031,26.528,62.031z M26.528,37.526c-5.727,0-10.385,4.6-10.385,10.253s4.658,10.252,10.385,10.252     c5.726,0,10.384-4.599,10.384-10.252S32.254,37.526,26.528,37.526z"/><path d="M32.315,101.492H7.228c-2.883,0-5.228-2.33-5.228-5.194v-6.542c0-13.393,11.003-24.289,24.528-24.289     c5.32,0,10.383,1.66,14.639,4.8c0.889,0.656,1.078,1.908,0.422,2.797c-0.656,0.888-1.907,1.078-2.797,0.422     c-3.563-2.629-7.804-4.019-12.264-4.019C15.209,69.467,6,78.569,6,89.756v6.542c0,0.658,0.551,1.194,1.228,1.194h25.088     c1.104,0,2,0.896,2,2S33.42,101.492,32.315,101.492z"/></g><g><path d="M120.772,99.979H95.685c-1.104,0-2-0.896-2-2s0.896-2,2-2h25.088c0.677,0,1.228-0.536,1.228-1.194v-6.542     c0-11.188-9.209-20.289-20.528-20.289c-4.728,0-9.343,1.628-12.996,4.585c-0.858,0.694-2.117,0.563-2.813-0.296     c-0.694-0.858-0.563-2.118,0.297-2.813c4.362-3.531,9.871-5.476,15.512-5.476C114.997,63.954,126,74.85,126,88.243v6.542     C126,97.648,123.655,99.979,120.772,99.979z"/><path d="M101.472,61.043c-7.932,0-14.384-6.394-14.384-14.252s6.452-14.253,14.384-14.253s14.385,6.394,14.385,14.253     S109.403,61.043,101.472,61.043z M101.472,36.538c-5.726,0-10.384,4.6-10.384,10.253s4.658,10.252,10.384,10.252     c5.727,0,10.385-4.599,10.385-10.252S107.198,36.538,101.472,36.538z"/></g><g><path d="M91.145,108H36.855c-3.606,0-6.54-2.912-6.54-6.492v-9.201c0-18.389,15.11-33.349,33.685-33.349     s33.685,14.96,33.685,33.349v9.201C97.685,105.088,94.751,108,91.145,108z M64,62.959c-16.368,0-29.685,13.166-29.685,29.349     v9.201c0,1.374,1.14,2.492,2.54,2.492h54.289c1.4,0,2.54-1.118,2.54-2.492v-9.201C93.685,76.125,80.368,62.959,64,62.959z"/><path d="M63.305,56.621c-10.192,0-18.485-8.214-18.485-18.311S53.112,20,63.305,20S81.79,28.214,81.79,38.311     S73.497,56.621,63.305,56.621z M63.305,24c-7.987,0-14.485,6.42-14.485,14.311s6.498,14.311,14.485,14.311     s14.485-6.42,14.485-14.311S71.292,24,63.305,24z"/></g></g></g><text x="0" y="143" fill="#000000" font-size="5px" font-weight="bold" font-family="'Helvetica Neue', Helvetica, Arial-Unicode, Arial, Sans-serif">Created by Shocho</text><text x="0" y="148" fill="#000000" font-size="5px" font-weight="bold" font-family="'Helvetica Neue', Helvetica, Arial-Unicode, Arial, Sans-serif">from the Noun Project</text></svg>